<mxfile host="app.diagrams.net" modified="2022-10-20T12:54:19.333Z" agent="5.0 (Windows NT 10.0; Win64; x64) AppleWebKit/537.36 (KHTML, like Gecko) Chrome/106.0.0.0 Safari/537.36" etag="RkpV3Mdf9ilDWx8_40-1" version="20.4.1" type="github">
  <diagram id="4qHA9sfYML6KZp6dPu4P" name="Page-1">
    <mxGraphModel dx="2370" dy="1270" grid="1" gridSize="10" guides="1" tooltips="1" connect="1" arrows="1" fold="1" page="1" pageScale="1" pageWidth="1169" pageHeight="827" math="0" shadow="0">
      <root>
        <mxCell id="0" />
        <mxCell id="1" parent="0" />
        <mxCell id="ZvwgiDBsHgwBUMf2eowB-108" value="" style="verticalLabelPosition=bottom;html=1;verticalAlign=top;strokeWidth=1;align=center;outlineConnect=0;dashed=0;outlineConnect=0;shape=mxgraph.aws3d.flatDoubleEdge2;strokeColor=#68B92E;fillColor=#68B92E;aspect=fixed;shadow=0;sketch=0;fontSize=20;fontStyle=1;fontFamily=Georgia;" vertex="1" parent="1">
          <mxGeometry x="831.72" y="400.5" width="491.56" height="280" as="geometry" />
        </mxCell>
        <mxCell id="ZvwgiDBsHgwBUMf2eowB-107" value="" style="verticalLabelPosition=bottom;html=1;verticalAlign=top;strokeWidth=1;align=center;outlineConnect=0;dashed=0;outlineConnect=0;shape=mxgraph.aws3d.flatDoubleEdge2;strokeColor=#68B92E;fillColor=#68B92E;aspect=fixed;shadow=0;sketch=0;fontSize=20;fontStyle=1;fontFamily=Georgia;" vertex="1" parent="1">
          <mxGeometry x="1142.16" y="291.5" width="331.8" height="189" as="geometry" />
        </mxCell>
        <mxCell id="ZvwgiDBsHgwBUMf2eowB-106" value="" style="verticalLabelPosition=bottom;html=1;verticalAlign=top;strokeWidth=1;align=center;outlineConnect=0;dashed=0;outlineConnect=0;shape=mxgraph.aws3d.flatDoubleEdge2;strokeColor=#68B92E;fillColor=#68B92E;aspect=fixed;shadow=0;sketch=0;fontSize=20;fontStyle=1;fontFamily=Georgia;" vertex="1" parent="1">
          <mxGeometry x="987.75" y="346.78" width="410.33" height="233.72" as="geometry" />
        </mxCell>
        <mxCell id="ZvwgiDBsHgwBUMf2eowB-1" value="User" style="verticalLabelPosition=bottom;html=1;verticalAlign=top;strokeWidth=1;align=center;outlineConnect=0;dashed=0;outlineConnect=0;shape=mxgraph.aws3d.end_user;strokeColor=#68B92E;fillColor=#68B92E;aspect=fixed;fontSize=20;fontStyle=1;fontFamily=Georgia;" vertex="1" parent="1">
          <mxGeometry x="560" y="989" width="49" height="100.46" as="geometry" />
        </mxCell>
        <mxCell id="ZvwgiDBsHgwBUMf2eowB-2" value="User" style="verticalLabelPosition=bottom;html=1;verticalAlign=top;strokeWidth=1;align=center;outlineConnect=0;dashed=0;outlineConnect=0;shape=mxgraph.aws3d.end_user;strokeColor=#68B92E;fillColor=#68B92E;aspect=fixed;fontSize=20;fontStyle=1;fontFamily=Georgia;" vertex="1" parent="1">
          <mxGeometry x="668" y="1063" width="49" height="100.46" as="geometry" />
        </mxCell>
        <mxCell id="ZvwgiDBsHgwBUMf2eowB-3" value="User" style="verticalLabelPosition=bottom;html=1;verticalAlign=top;strokeWidth=1;align=center;outlineConnect=0;dashed=0;outlineConnect=0;shape=mxgraph.aws3d.end_user;strokeColor=#68B92E;fillColor=#68B92E;aspect=fixed;fontFamily=Tahoma;fontSize=20;fontStyle=1" vertex="1" parent="1">
          <mxGeometry x="776.8" y="1129" width="49" height="100.46" as="geometry" />
        </mxCell>
        <mxCell id="ZvwgiDBsHgwBUMf2eowB-4" value="ELB" style="verticalLabelPosition=bottom;html=1;verticalAlign=top;strokeWidth=1;align=center;outlineConnect=0;dashed=0;outlineConnect=0;shape=mxgraph.aws3d.elasticLoadBalancing;fillColor=#ECECEC;strokeColor=#68B92E;aspect=fixed;fontSize=20;fontStyle=1;fontFamily=Georgia;" vertex="1" parent="1">
          <mxGeometry x="1089.9999999999998" y="767.11" width="92" height="88.17" as="geometry" />
        </mxCell>
        <mxCell id="ZvwgiDBsHgwBUMf2eowB-5" value="" style="verticalLabelPosition=bottom;html=1;verticalAlign=top;strokeWidth=1;align=center;outlineConnect=0;dashed=0;outlineConnect=0;shape=mxgraph.aws3d.arrowNE;fillColor=#68B92E;aspect=fixed;strokeColor=#68B92E;fontSize=20;fontStyle=1;fontFamily=Georgia;" vertex="1" parent="1">
          <mxGeometry x="750" y="1017.1700000000001" width="70.8" height="40.46" as="geometry" />
        </mxCell>
        <mxCell id="ZvwgiDBsHgwBUMf2eowB-19" value="" style="endArrow=none;html=1;rounded=1;edgeStyle=isometricEdgeStyle;startArrow=open;startFill=0;endFill=0;jumpStyle=none;strokeWidth=4;strokeColor=#68B92E;fontSize=20;fontStyle=1;fontFamily=Georgia;" edge="1" parent="1" target="ZvwgiDBsHgwBUMf2eowB-5">
          <mxGeometry width="50" height="100" relative="1" as="geometry">
            <mxPoint x="836" y="1166" as="sourcePoint" />
            <mxPoint x="746" y="896" as="targetPoint" />
            <Array as="points">
              <mxPoint x="790" y="1106" />
            </Array>
          </mxGeometry>
        </mxCell>
        <mxCell id="ZvwgiDBsHgwBUMf2eowB-21" value="" style="endArrow=none;html=1;rounded=1;edgeStyle=isometricEdgeStyle;startArrow=open;startFill=0;endFill=0;jumpStyle=none;strokeWidth=4;strokeColor=#68B92E;fontSize=20;fontStyle=1;fontFamily=Georgia;" edge="1" parent="1" source="ZvwgiDBsHgwBUMf2eowB-1" target="ZvwgiDBsHgwBUMf2eowB-5">
          <mxGeometry width="50" height="100" relative="1" as="geometry">
            <mxPoint x="610" y="1009" as="sourcePoint" />
            <mxPoint x="740" y="979" as="targetPoint" />
            <Array as="points">
              <mxPoint x="690" y="1049" />
            </Array>
          </mxGeometry>
        </mxCell>
        <mxCell id="ZvwgiDBsHgwBUMf2eowB-25" value="Ingress" style="verticalLabelPosition=bottom;html=1;verticalAlign=top;strokeWidth=1;align=center;outlineConnect=0;dashed=0;outlineConnect=0;shape=mxgraph.aws3d.cloudfront;fillColor=#ECECEC;strokeColor=#68B92E;aspect=fixed;fontSize=20;fontStyle=1;fontFamily=Georgia;" vertex="1" parent="1">
          <mxGeometry x="810.0000000000001" y="790.0000000000001" width="85.58" height="140" as="geometry" />
        </mxCell>
        <mxCell id="ZvwgiDBsHgwBUMf2eowB-27" value="" style="verticalLabelPosition=bottom;html=1;verticalAlign=top;strokeWidth=1;align=center;outlineConnect=0;dashed=0;outlineConnect=0;shape=mxgraph.aws3d.application_server;fillColor=#ECECEC;strokeColor=#68B92E;aspect=fixed;fontSize=20;fontStyle=1;fontFamily=Georgia;" vertex="1" parent="1">
          <mxGeometry x="1301.72" y="364.5" width="93.24" height="94" as="geometry" />
        </mxCell>
        <mxCell id="ZvwgiDBsHgwBUMf2eowB-29" value="" style="verticalLabelPosition=bottom;html=1;verticalAlign=top;strokeWidth=1;align=center;outlineConnect=0;dashed=0;outlineConnect=0;shape=mxgraph.aws3d.application_server;fillColor=#ECECEC;strokeColor=#68B92E;aspect=fixed;fontSize=20;fontStyle=1;fontFamily=Georgia;" vertex="1" parent="1">
          <mxGeometry x="1031.8799999999999" y="355.5" width="93.24" height="94" as="geometry" />
        </mxCell>
        <mxCell id="ZvwgiDBsHgwBUMf2eowB-30" value="" style="verticalLabelPosition=bottom;html=1;verticalAlign=top;strokeWidth=1;align=center;outlineConnect=0;dashed=0;outlineConnect=0;shape=mxgraph.aws3d.application_server;fillColor=#ECECEC;strokeColor=#68B92E;aspect=fixed;fontSize=20;fontStyle=1;fontFamily=Georgia;" vertex="1" parent="1">
          <mxGeometry x="1128.46" y="409.5" width="93.24" height="94" as="geometry" />
        </mxCell>
        <mxCell id="ZvwgiDBsHgwBUMf2eowB-32" value="Master Node" style="verticalLabelPosition=bottom;html=1;verticalAlign=top;strokeWidth=1;align=center;outlineConnect=0;dashed=0;outlineConnect=0;shape=mxgraph.aws3d.rdsMaster;fillColor=#ECECEC;strokeColor=#68B92E;aspect=fixed;fontSize=20;fontStyle=1;fontFamily=Georgia;" vertex="1" parent="1">
          <mxGeometry x="1152.4599999999996" y="560.5" width="95.26" height="103" as="geometry" />
        </mxCell>
        <mxCell id="ZvwgiDBsHgwBUMf2eowB-33" value="" style="verticalLabelPosition=bottom;html=1;verticalAlign=top;strokeWidth=1;align=center;outlineConnect=0;dashed=0;outlineConnect=0;shape=mxgraph.aws3d.application_server;fillColor=#ECECEC;strokeColor=#68B92E;aspect=fixed;fontSize=20;fontStyle=1;fontFamily=Georgia;" vertex="1" parent="1">
          <mxGeometry x="1191.7199999999998" y="300.5" width="93.24" height="94" as="geometry" />
        </mxCell>
        <mxCell id="ZvwgiDBsHgwBUMf2eowB-34" value="" style="verticalLabelPosition=bottom;html=1;verticalAlign=top;strokeWidth=1;align=center;outlineConnect=0;dashed=0;outlineConnect=0;shape=mxgraph.aws3d.application_server;fillColor=#ECECEC;strokeColor=#68B92E;aspect=fixed;fontSize=20;fontStyle=1;fontFamily=Georgia;" vertex="1" parent="1">
          <mxGeometry x="1231.04" y="468.5" width="93.24" height="94" as="geometry" />
        </mxCell>
        <mxCell id="ZvwgiDBsHgwBUMf2eowB-35" value="Ingress" style="verticalLabelPosition=bottom;html=1;verticalAlign=top;strokeWidth=1;align=center;outlineConnect=0;dashed=0;outlineConnect=0;shape=mxgraph.aws3d.cloudfront;fillColor=#ECECEC;strokeColor=#68B92E;aspect=fixed;fontSize=20;fontStyle=1;fontFamily=Georgia;" vertex="1" parent="1">
          <mxGeometry x="1039.54" y="925" width="85.58" height="140" as="geometry" />
        </mxCell>
        <mxCell id="ZvwgiDBsHgwBUMf2eowB-36" value="" style="verticalLabelPosition=bottom;html=1;verticalAlign=top;strokeWidth=1;align=center;outlineConnect=0;dashed=0;outlineConnect=0;shape=mxgraph.aws3d.dashedArrowlessEdge2;strokeColor=#68B92E;aspect=fixed;direction=west;fontSize=20;fontStyle=1;fontFamily=Georgia;" vertex="1" parent="1">
          <mxGeometry x="840" y="762.46" width="469.67" height="267.54" as="geometry" />
        </mxCell>
        <mxCell id="ZvwgiDBsHgwBUMf2eowB-43" value="" style="verticalLabelPosition=bottom;html=1;verticalAlign=top;strokeWidth=1;align=center;outlineConnect=0;dashed=0;outlineConnect=0;shape=mxgraph.aws3d.dashedArrowlessEdge2;strokeColor=#68B92E;aspect=fixed;direction=west;fontSize=20;fontStyle=1;fontFamily=Georgia;" vertex="1" parent="1">
          <mxGeometry x="660" y="864.2" width="466.62" height="265.8" as="geometry" />
        </mxCell>
        <mxCell id="ZvwgiDBsHgwBUMf2eowB-45" value="&lt;span style=&quot;font-size: 20px;&quot;&gt;Public VIP2&lt;/span&gt;" style="text;html=1;align=center;verticalAlign=middle;resizable=0;points=[];autosize=1;strokeColor=none;fillColor=none;fontSize=20;fontStyle=1;fontFamily=Georgia;" vertex="1" parent="1">
          <mxGeometry x="764.5899999999999" y="991.46" width="140" height="40" as="geometry" />
        </mxCell>
        <mxCell id="ZvwgiDBsHgwBUMf2eowB-46" value="" style="verticalLabelPosition=bottom;html=1;verticalAlign=top;strokeWidth=1;align=center;outlineConnect=0;dashed=0;outlineConnect=0;shape=mxgraph.aws3d.arrowlessNE;fillColor=#68B92E;aspect=fixed;strokeColor=#68B92E;fontSize=20;fontStyle=1;fontFamily=Georgia;" vertex="1" parent="1">
          <mxGeometry x="845.78" y="986" width="31.6" height="18" as="geometry" />
        </mxCell>
        <mxCell id="ZvwgiDBsHgwBUMf2eowB-48" value="" style="verticalLabelPosition=bottom;html=1;verticalAlign=top;strokeWidth=1;align=center;outlineConnect=0;dashed=0;outlineConnect=0;shape=mxgraph.aws3d.arrowNE;fillColor=#68B92E;aspect=fixed;strokeColor=#68B92E;fontSize=20;fontStyle=1;fontFamily=Georgia;" vertex="1" parent="1">
          <mxGeometry x="1048.8" y="860" width="45" height="25.71" as="geometry" />
        </mxCell>
        <mxCell id="ZvwgiDBsHgwBUMf2eowB-66" value="&lt;span style=&quot;font-size: 20px;&quot;&gt;Cloud Intra VIP&lt;/span&gt;" style="text;html=1;align=center;verticalAlign=middle;resizable=0;points=[];autosize=1;strokeColor=none;fillColor=none;fontSize=20;fontStyle=1;fontFamily=Georgia;" vertex="1" parent="1">
          <mxGeometry x="330.53999999999996" y="775.61" width="190" height="40" as="geometry" />
        </mxCell>
        <mxCell id="ZvwgiDBsHgwBUMf2eowB-67" value="" style="verticalLabelPosition=bottom;html=1;verticalAlign=top;strokeWidth=1;align=center;outlineConnect=0;dashed=0;outlineConnect=0;shape=mxgraph.aws3d.arrowlessNE;fillColor=#68B92E;aspect=fixed;strokeColor=#68B92E;fontSize=20;fontStyle=1;fontFamily=Georgia;" vertex="1" parent="1">
          <mxGeometry x="449.99999999999994" y="760" width="31.6" height="18" as="geometry" />
        </mxCell>
        <mxCell id="ZvwgiDBsHgwBUMf2eowB-73" value="Cloud Data Center" style="verticalLabelPosition=bottom;html=1;verticalAlign=top;strokeWidth=1;align=center;outlineConnect=0;dashed=0;outlineConnect=0;shape=mxgraph.aws3d.dataCenter;strokeColor=#68B92E;aspect=fixed;shadow=0;sketch=0;fillColor=default;gradientColor=none;fontSize=20;fontStyle=1;fontFamily=Georgia;" vertex="1" parent="1">
          <mxGeometry x="238.54" y="824.2" width="123" height="142" as="geometry" />
        </mxCell>
        <mxCell id="ZvwgiDBsHgwBUMf2eowB-74" value="Local Data Center" style="verticalLabelPosition=bottom;html=1;verticalAlign=top;strokeWidth=1;align=center;outlineConnect=0;dashed=0;outlineConnect=0;shape=mxgraph.aws3d.dataCenter;strokeColor=#68B92E;aspect=fixed;shadow=0;sketch=0;fillColor=default;gradientColor=none;fontFamily=Tahoma;fontSize=20;fontStyle=1" vertex="1" parent="1">
          <mxGeometry x="58" y="694.8800000000001" width="123" height="142" as="geometry" />
        </mxCell>
        <mxCell id="ZvwgiDBsHgwBUMf2eowB-77" value="" style="verticalLabelPosition=bottom;html=1;verticalAlign=top;strokeWidth=1;align=center;outlineConnect=0;dashed=0;outlineConnect=0;shape=mxgraph.aws3d.arrowNE;fillColor=#68B92E;aspect=fixed;shadow=0;sketch=0;strokeColor=#68B92E;fontSize=20;fontStyle=1;fontFamily=Georgia;" vertex="1" parent="1">
          <mxGeometry x="349" y="813.69" width="45.5" height="26" as="geometry" />
        </mxCell>
        <mxCell id="ZvwgiDBsHgwBUMf2eowB-78" value="" style="verticalLabelPosition=bottom;html=1;verticalAlign=top;strokeWidth=1;align=center;outlineConnect=0;dashed=0;outlineConnect=0;shape=mxgraph.aws3d.arrowNE;fillColor=#68B92E;aspect=fixed;shadow=0;sketch=0;strokeColor=#68B92E;fontSize=20;fontStyle=1;fontFamily=Georgia;" vertex="1" parent="1">
          <mxGeometry x="180.5" y="688.8800000000001" width="45.5" height="26" as="geometry" />
        </mxCell>
        <mxCell id="ZvwgiDBsHgwBUMf2eowB-79" value="" style="verticalLabelPosition=bottom;html=1;verticalAlign=top;strokeWidth=1;align=center;outlineConnect=0;dashed=0;outlineConnect=0;shape=mxgraph.aws3d.arrowlessNE;fillColor=#68B92E;aspect=fixed;strokeColor=#68B92E;fontSize=20;fontStyle=1;fontFamily=Georgia;" vertex="1" parent="1">
          <mxGeometry x="259.99999999999994" y="650" width="31.6" height="18" as="geometry" />
        </mxCell>
        <mxCell id="ZvwgiDBsHgwBUMf2eowB-80" value="&lt;span style=&quot;font-size: 20px;&quot;&gt;Public VIP1&lt;/span&gt;" style="text;html=1;align=center;verticalAlign=middle;resizable=0;points=[];autosize=1;strokeColor=none;fillColor=none;fontSize=20;fontStyle=1;fontFamily=Georgia;" vertex="1" parent="1">
          <mxGeometry x="169.99999999999997" y="663" width="140" height="40" as="geometry" />
        </mxCell>
        <mxCell id="ZvwgiDBsHgwBUMf2eowB-87" value="ELB" style="verticalLabelPosition=bottom;html=1;verticalAlign=top;strokeWidth=1;align=center;outlineConnect=0;dashed=0;outlineConnect=0;shape=mxgraph.aws3d.elasticLoadBalancing;fillColor=#ECECEC;strokeColor=#68B92E;aspect=fixed;fontSize=20;fontStyle=1;fontFamily=Georgia;" vertex="1" parent="1">
          <mxGeometry x="615.5399999999998" y="474.33" width="92" height="88.17" as="geometry" />
        </mxCell>
        <mxCell id="ZvwgiDBsHgwBUMf2eowB-88" value="" style="verticalLabelPosition=bottom;html=1;verticalAlign=top;strokeWidth=1;align=center;outlineConnect=0;dashed=0;outlineConnect=0;shape=mxgraph.aws3d.arrowNE;fillColor=#68B92E;aspect=fixed;strokeColor=#68B92E;fontSize=20;fontStyle=1;fontFamily=Georgia;" vertex="1" parent="1">
          <mxGeometry x="570" y="560" width="45.54" height="26.02" as="geometry" />
        </mxCell>
        <mxCell id="ZvwgiDBsHgwBUMf2eowB-89" value="" style="verticalLabelPosition=bottom;html=1;verticalAlign=top;strokeWidth=1;align=center;outlineConnect=0;dashed=0;outlineConnect=0;shape=mxgraph.aws3d.dashedArrowlessEdge2;strokeColor=#68B92E;aspect=fixed;direction=west;fontSize=20;fontStyle=1;fontFamily=Georgia;" vertex="1" parent="1">
          <mxGeometry x="751.72" y="461.48" width="489.83" height="279.02" as="geometry" />
        </mxCell>
        <mxCell id="ZvwgiDBsHgwBUMf2eowB-91" value="" style="verticalLabelPosition=bottom;html=1;verticalAlign=top;strokeWidth=1;align=center;outlineConnect=0;dashed=0;outlineConnect=0;shape=mxgraph.aws3d.dashedArrowlessEdge2;strokeColor=#68B92E;aspect=fixed;direction=west;" vertex="1" parent="1">
          <mxGeometry x="1168.21" y="220.5" width="491.55" height="280" as="geometry" />
        </mxCell>
        <mxCell id="ZvwgiDBsHgwBUMf2eowB-101" value="" style="edgeStyle=isometricEdgeStyle;endArrow=none;html=1;elbow=vertical;rounded=1;strokeWidth=4;jumpStyle=none;fontColor=#68B92E;strokeColor=#68B92E;fontSize=20;fontStyle=1;fontFamily=Georgia;" edge="1" parent="1" target="ZvwgiDBsHgwBUMf2eowB-4">
          <mxGeometry width="50" height="100" relative="1" as="geometry">
            <mxPoint x="690" y="550" as="sourcePoint" />
            <mxPoint x="1350" y="710" as="targetPoint" />
            <Array as="points">
              <mxPoint x="900" y="650" />
              <mxPoint x="910" y="640" />
              <mxPoint x="940" y="620" />
              <mxPoint x="950" y="620" />
              <mxPoint x="990" y="600" />
              <mxPoint x="1010" y="590" />
            </Array>
          </mxGeometry>
        </mxCell>
        <mxCell id="ZvwgiDBsHgwBUMf2eowB-104" value="" style="verticalLabelPosition=bottom;html=1;verticalAlign=top;strokeWidth=1;align=center;outlineConnect=0;dashed=0;outlineConnect=0;shape=mxgraph.aws3d.arrowNE;fillColor=#68B92E;aspect=fixed;shadow=0;sketch=0;strokeColor=#68B92E;fontSize=20;fontStyle=1;fontFamily=Georgia;" vertex="1" parent="1">
          <mxGeometry x="898.34" y="623.5" width="45.5" height="26" as="geometry" />
        </mxCell>
        <mxCell id="ZvwgiDBsHgwBUMf2eowB-132" value="Master Node" style="verticalLabelPosition=bottom;html=1;verticalAlign=top;strokeWidth=1;align=center;outlineConnect=0;dashed=0;outlineConnect=0;shape=mxgraph.aws3d.rdsMaster;fillColor=#ECECEC;strokeColor=#68B92E;aspect=fixed;fontSize=20;fontStyle=1;fontFamily=Georgia;" vertex="1" parent="1">
          <mxGeometry x="873.46" y="400.5" width="95.26" height="103" as="geometry" />
        </mxCell>
        <mxCell id="ZvwgiDBsHgwBUMf2eowB-133" value="Master Node" style="verticalLabelPosition=bottom;html=1;verticalAlign=top;strokeWidth=1;align=center;outlineConnect=0;dashed=0;outlineConnect=0;shape=mxgraph.aws3d.rdsMaster;fillColor=#ECECEC;strokeColor=#68B92E;aspect=fixed;fontSize=20;fontStyle=1;fontFamily=Georgia;" vertex="1" parent="1">
          <mxGeometry x="1008.4599999999998" y="477.5" width="95.26" height="103" as="geometry" />
        </mxCell>
        <mxCell id="ZvwgiDBsHgwBUMf2eowB-137" value="Ingress" style="verticalLabelPosition=bottom;html=1;verticalAlign=top;strokeWidth=1;align=center;outlineConnect=0;dashed=0;outlineConnect=0;shape=mxgraph.aws3d.cloudfront;fillColor=#ECECEC;strokeColor=#68B92E;aspect=fixed;fontSize=20;fontStyle=1;fontFamily=Georgia;" vertex="1" parent="1">
          <mxGeometry x="300.0000000000001" y="488.5000000000001" width="85.58" height="140" as="geometry" />
        </mxCell>
        <mxCell id="ZvwgiDBsHgwBUMf2eowB-138" value="Ingress" style="verticalLabelPosition=bottom;html=1;verticalAlign=top;strokeWidth=1;align=center;outlineConnect=0;dashed=0;outlineConnect=0;shape=mxgraph.aws3d.cloudfront;fillColor=#ECECEC;strokeColor=#68B92E;aspect=fixed;fontSize=20;fontStyle=1;fontFamily=Georgia;" vertex="1" parent="1">
          <mxGeometry x="529.54" y="623.5" width="85.58" height="140" as="geometry" />
        </mxCell>
        <mxCell id="ZvwgiDBsHgwBUMf2eowB-139" value="" style="verticalLabelPosition=bottom;html=1;verticalAlign=top;strokeWidth=1;align=center;outlineConnect=0;dashed=0;outlineConnect=0;shape=mxgraph.aws3d.dashedArrowlessEdge2;strokeColor=#68B92E;aspect=fixed;direction=west;fontSize=20;fontStyle=1;fontFamily=Georgia;" vertex="1" parent="1">
          <mxGeometry x="330" y="460.96000000000004" width="469.67" height="267.54" as="geometry" />
        </mxCell>
        <mxCell id="ZvwgiDBsHgwBUMf2eowB-141" value="" style="verticalLabelPosition=bottom;html=1;verticalAlign=top;strokeWidth=1;align=center;outlineConnect=0;dashed=0;outlineConnect=0;shape=mxgraph.aws3d.dashedArrowlessEdge2;strokeColor=#68B92E;aspect=fixed;direction=west;fontSize=20;fontStyle=1;fontFamily=Georgia;" vertex="1" parent="1">
          <mxGeometry x="150" y="562.7" width="466.62" height="265.8" as="geometry" />
        </mxCell>
        <mxCell id="ZvwgiDBsHgwBUMf2eowB-143" value="Master Node" style="verticalLabelPosition=bottom;html=1;verticalAlign=top;strokeWidth=1;align=center;outlineConnect=0;dashed=0;outlineConnect=0;shape=mxgraph.aws3d.rdsMaster;fillColor=#ECECEC;strokeColor=#68B92E;aspect=fixed;fontSize=20;fontStyle=1;fontFamily=Georgia;" vertex="1" parent="1">
          <mxGeometry x="873.46" y="400.5" width="95.26" height="103" as="geometry" />
        </mxCell>
        <mxCell id="ZvwgiDBsHgwBUMf2eowB-144" value="Master Node" style="verticalLabelPosition=bottom;html=1;verticalAlign=top;strokeWidth=1;align=center;outlineConnect=0;dashed=0;outlineConnect=0;shape=mxgraph.aws3d.rdsMaster;fillColor=#ECECEC;strokeColor=#68B92E;aspect=fixed;fontSize=20;fontStyle=1;fontFamily=Georgia;" vertex="1" parent="1">
          <mxGeometry x="1008.4599999999998" y="477.5" width="95.26" height="103" as="geometry" />
        </mxCell>
        <mxCell id="ZvwgiDBsHgwBUMf2eowB-145" value="Master Node" style="verticalLabelPosition=bottom;html=1;verticalAlign=top;strokeWidth=1;align=center;outlineConnect=0;dashed=0;outlineConnect=0;shape=mxgraph.aws3d.rdsMaster;fillColor=#ECECEC;strokeColor=#68B92E;aspect=fixed;fontSize=20;fontStyle=1;fontFamily=Georgia;" vertex="1" parent="1">
          <mxGeometry x="1152.4599999999996" y="560.5" width="95.26" height="103" as="geometry" />
        </mxCell>
        <mxCell id="ZvwgiDBsHgwBUMf2eowB-146" value="" style="verticalLabelPosition=bottom;html=1;verticalAlign=top;strokeWidth=1;align=center;outlineConnect=0;dashed=0;outlineConnect=0;shape=mxgraph.aws3d.application_server;fillColor=#ECECEC;strokeColor=#68B92E;aspect=fixed;fontSize=20;fontStyle=1;fontFamily=Georgia;" vertex="1" parent="1">
          <mxGeometry x="1231.04" y="468.5" width="93.24" height="94" as="geometry" />
        </mxCell>
        <mxCell id="ZvwgiDBsHgwBUMf2eowB-147" value="" style="verticalLabelPosition=bottom;html=1;verticalAlign=top;strokeWidth=1;align=center;outlineConnect=0;dashed=0;outlineConnect=0;shape=mxgraph.aws3d.application_server;fillColor=#ECECEC;strokeColor=#68B92E;aspect=fixed;fontSize=20;fontStyle=1;fontFamily=Georgia;" vertex="1" parent="1">
          <mxGeometry x="1128.46" y="409.5" width="93.24" height="94" as="geometry" />
        </mxCell>
        <mxCell id="ZvwgiDBsHgwBUMf2eowB-164" value="" style="group;strokeColor=none;fontSize=20;fontStyle=1;fontFamily=Georgia;" vertex="1" connectable="0" parent="1">
          <mxGeometry x="1630" y="630.51" width="140" height="114" as="geometry" />
        </mxCell>
        <mxCell id="ZvwgiDBsHgwBUMf2eowB-160" value="" style="verticalLabelPosition=bottom;html=1;verticalAlign=top;strokeWidth=1;align=center;outlineConnect=0;dashed=0;outlineConnect=0;shape=mxgraph.aws3d.application_server;fillColor=#ECECEC;strokeColor=#68B92E;aspect=fixed;shadow=0;sketch=0;fontSize=20;fontStyle=1;fontFamily=Georgia;" vertex="1" parent="ZvwgiDBsHgwBUMf2eowB-164">
          <mxGeometry x="37.26235741444867" width="61.57183646982479" height="62.07242050616483" as="geometry" />
        </mxCell>
        <mxCell id="ZvwgiDBsHgwBUMf2eowB-161" value="" style="verticalLabelPosition=bottom;html=1;verticalAlign=top;strokeWidth=1;align=center;outlineConnect=0;dashed=0;outlineConnect=0;shape=mxgraph.aws3d.application_server;fillColor=#ECECEC;strokeColor=#68B92E;aspect=fixed;shadow=0;sketch=0;fontSize=20;fontStyle=1;fontFamily=Georgia;" vertex="1" parent="ZvwgiDBsHgwBUMf2eowB-164">
          <mxGeometry y="22.352941176470587" width="61.57183646982479" height="62.07242050616483" as="geometry" />
        </mxCell>
        <mxCell id="ZvwgiDBsHgwBUMf2eowB-162" value="" style="verticalLabelPosition=bottom;html=1;verticalAlign=top;strokeWidth=1;align=center;outlineConnect=0;dashed=0;outlineConnect=0;shape=mxgraph.aws3d.application_server;fillColor=#ECECEC;strokeColor=#68B92E;aspect=fixed;shadow=0;sketch=0;fontSize=20;fontStyle=1;fontFamily=Georgia;" vertex="1" parent="ZvwgiDBsHgwBUMf2eowB-164">
          <mxGeometry x="74.52471482889734" y="22.352941176470587" width="61.57183646982479" height="62.07242050616483" as="geometry" />
        </mxCell>
        <mxCell id="ZvwgiDBsHgwBUMf2eowB-163" value="&lt;span style=&quot;font-size: 20px;&quot;&gt;Cluster Monitor/Zabbix&lt;/span&gt;" style="verticalLabelPosition=bottom;html=1;verticalAlign=top;strokeWidth=1;align=center;outlineConnect=0;dashed=0;outlineConnect=0;shape=mxgraph.aws3d.application_server;fillColor=#ECECEC;strokeColor=#68B92E;aspect=fixed;shadow=0;sketch=0;fontSize=20;fontStyle=1;fontFamily=Georgia;" vertex="1" parent="ZvwgiDBsHgwBUMf2eowB-164">
          <mxGeometry x="37.26235741444867" y="44.705882352941174" width="61.57183646982479" height="62.07242050616483" as="geometry" />
        </mxCell>
        <mxCell id="ZvwgiDBsHgwBUMf2eowB-167" value="&lt;font color=&quot;#68b92e&quot;&gt;Kubernetes Cluster&lt;/font&gt;" style="text;html=1;align=left;verticalAlign=middle;resizable=0;points=[];autosize=1;strokeColor=#68B92E;fillColor=none;rotation=30;fontStyle=1;fontSize=38;" vertex="1" parent="1">
          <mxGeometry x="1210" y="286.78" width="370" height="60" as="geometry" />
        </mxCell>
        <mxCell id="ZvwgiDBsHgwBUMf2eowB-168" value="" style="verticalLabelPosition=bottom;html=1;verticalAlign=top;strokeWidth=1;align=center;outlineConnect=0;dashed=0;outlineConnect=0;shape=mxgraph.aws3d.dashedArrowlessEdge2;strokeColor=#68B92E;aspect=fixed;direction=west;rotation=120;fontSize=20;fontStyle=1;fontFamily=Georgia;" vertex="1" parent="1">
          <mxGeometry x="629.16" y="732.04" width="169.9" height="96.78" as="geometry" />
        </mxCell>
        <mxCell id="ZvwgiDBsHgwBUMf2eowB-169" value="" style="verticalLabelPosition=bottom;html=1;verticalAlign=top;strokeWidth=1;align=center;outlineConnect=0;dashed=0;outlineConnect=0;shape=mxgraph.aws3d.dashedArrowlessEdge2;strokeColor=#68B92E;aspect=fixed;direction=west;rotation=120;fontSize=20;fontStyle=1;fontFamily=Georgia;" vertex="1" parent="1">
          <mxGeometry x="149.99999999999994" y="463.71999999999997" width="169.9" height="96.78" as="geometry" />
        </mxCell>
        <mxCell id="ZvwgiDBsHgwBUMf2eowB-170" value="" style="verticalLabelPosition=bottom;html=1;verticalAlign=top;strokeWidth=1;align=center;outlineConnect=0;dashed=0;outlineConnect=0;shape=mxgraph.aws3d.dashedArrowlessEdge2;strokeColor=#68B92E;aspect=fixed;direction=west;rotation=120;fontSize=20;fontStyle=1;fontFamily=Georgia;" vertex="1" parent="1">
          <mxGeometry x="1240.71" y="498.97" width="421.45" height="240.07" as="geometry" />
        </mxCell>
        <mxCell id="ZvwgiDBsHgwBUMf2eowB-171" value="" style="verticalLabelPosition=bottom;html=1;verticalAlign=top;strokeWidth=1;align=center;outlineConnect=0;dashed=0;outlineConnect=0;shape=mxgraph.aws3d.dashedArrowlessEdge2;strokeColor=#68B92E;aspect=fixed;direction=west;rotation=120;" vertex="1" parent="1">
          <mxGeometry x="751.72" y="221.41000000000003" width="421.45" height="240.07" as="geometry" />
        </mxCell>
        <mxCell id="ZvwgiDBsHgwBUMf2eowB-172" value="" style="verticalLabelPosition=bottom;html=1;verticalAlign=top;strokeWidth=1;align=center;outlineConnect=0;dashed=0;outlineConnect=0;shape=mxgraph.aws3d.dashedArrowlessEdge2;strokeColor=#68B92E;aspect=fixed;direction=west;rotation=120;fontSize=20;fontStyle=1;fontFamily=Georgia;" vertex="1" parent="1">
          <mxGeometry x="661.8199999999999" y="763.5" width="169.9" height="96.78" as="geometry" />
        </mxCell>
        <mxCell id="ZvwgiDBsHgwBUMf2eowB-173" value="" style="verticalLabelPosition=bottom;html=1;verticalAlign=top;strokeWidth=1;align=center;outlineConnect=0;dashed=0;outlineConnect=0;shape=mxgraph.aws3d.dashedArrowlessEdge2;strokeColor=#68B92E;aspect=fixed;direction=west;rotation=120;fontSize=20;fontStyle=1;fontFamily=Georgia;" vertex="1" parent="1">
          <mxGeometry x="1131.82" y="1033.22" width="169.9" height="96.78" as="geometry" />
        </mxCell>
        <mxCell id="ZvwgiDBsHgwBUMf2eowB-176" value="&lt;font color=&quot;#000000&quot; face=&quot;Georgia&quot;&gt;&lt;b&gt;Collector&lt;/b&gt;&lt;/font&gt;" style="verticalLabelPosition=bottom;html=1;verticalAlign=top;strokeWidth=1;align=center;outlineConnect=0;dashed=0;outlineConnect=0;shape=mxgraph.aws3d.workflowService;fillColor=#ECECEC;strokeColor=#68B92E;aspect=fixed;shadow=0;sketch=0;fontFamily=Tahoma;fontSize=20;fontColor=#68B92E;" vertex="1" parent="1">
          <mxGeometry x="1434.53" y="744.51" width="125.47" height="102.2" as="geometry" />
        </mxCell>
        <mxCell id="ZvwgiDBsHgwBUMf2eowB-178" value="" style="verticalLabelPosition=bottom;html=1;verticalAlign=top;strokeWidth=1;align=center;outlineConnect=0;dashed=0;outlineConnect=0;shape=mxgraph.aws3d.arrowSE;fillColor=#68B92E;aspect=fixed;shadow=0;sketch=0;strokeColor=#68B92E;fontFamily=Tahoma;fontSize=20;fontColor=#68B92E;" vertex="1" parent="1">
          <mxGeometry x="1372.25" y="714.88" width="45.5" height="26" as="geometry" />
        </mxCell>
        <mxCell id="ZvwgiDBsHgwBUMf2eowB-179" value="" style="verticalLabelPosition=bottom;html=1;verticalAlign=top;strokeWidth=1;align=center;outlineConnect=0;dashed=0;outlineConnect=0;shape=mxgraph.aws3d.arrowNE;fillColor=#68B92E;aspect=fixed;shadow=0;sketch=0;strokeColor=#68B92E;fontFamily=Tahoma;fontSize=20;fontColor=#68B92E;" vertex="1" parent="1">
          <mxGeometry x="1560" y="713.04" width="45.5" height="26" as="geometry" />
        </mxCell>
        <mxCell id="ZvwgiDBsHgwBUMf2eowB-166" value="" style="verticalLabelPosition=bottom;html=1;verticalAlign=top;strokeWidth=1;align=center;outlineConnect=0;dashed=0;outlineConnect=0;shape=mxgraph.aws3d.arrowNW;fillColor=#68B92E;aspect=fixed;shadow=0;sketch=0;strokeColor=#68B92E;fontSize=20;fontStyle=1;fontFamily=Georgia;" vertex="1" parent="1">
          <mxGeometry x="1580" y="600" width="45.5" height="26" as="geometry" />
        </mxCell>
      </root>
    </mxGraphModel>
  </diagram>
</mxfile>
